<svg width="32.166" height="10.4066" viewBox="0 0 32.166 10.4066" fill="none" xmlns="http://www.w3.org/2000/svg">
<path id="Vector" d="M3.67821 0.00660759C4.45154 0.00660759 5.30225 0.0094899 6.07442 0.0091958C6.16504 0.303598 6.32166 0.702473 6.42707 0.998904L7.15112 3.04084L9.76113 10.4014L7.58435 10.4037C7.55913 10.2843 7.46309 10.0495 7.42319 9.91854C7.27363 9.4272 7.0573 8.91066 6.9203 8.42069H6.06234L2.82547 8.42001C2.59021 9.11878 2.38557 9.71335 2.15128 10.4051C1.49679 10.4066 0.653422 10.4066 0 10.4066C0.466274 9.08535 0.702697 8.40971 1.05593 7.41596L2.72827 2.69714L3.37281 0.873491C3.4472 0.664819 3.63338 0.202526 3.67821 0.00660759ZM15.5361 1.42013C15.4012 1.42013 14.4272 1.42062 14.2706 1.42013C14.2706 4.03219 14.2689 6.37465 14.2685 8.98673C14.4573 8.98713 15.1345 8.98673 15.5549 8.98673C15.5549 9.16427 15.5572 10.3251 15.5572 10.4009H10.6092C10.6092 10.2484 10.6068 9.07889 10.6068 8.98673C10.8154 8.98673 11.8075 8.98615 12.0533 8.98673L12.0581 1.42013C11.8019 1.41653 10.9164 1.42013 10.644 1.42013C10.644 1.18532 10.644 0.236367 10.644 0C11.142 9.80327e-06 15.1358 9.80327e-06 15.5361 0V1.42013ZM19.4277 1.72764C20.2227 1.64321 21.3574 1.87386 21.9811 2.38907C22.7302 3.00788 22.9348 3.57254 23.0564 4.48997L21.0462 4.49247C20.9241 3.69958 20.3634 3.40419 19.6183 3.40348C19.1082 3.39366 18.4678 3.58199 18.4735 4.20851C18.4775 4.65072 18.8144 4.83285 19.1764 4.97841C19.6544 5.17068 20.1631 5.28368 20.6578 5.42119C20.9199 5.49464 21.1794 5.57868 21.4352 5.67307C22.4419 6.0532 23.1086 6.70689 23.122 7.85083C23.1319 8.45706 22.8983 9.04134 22.4746 9.46896C21.7857 10.1785 20.7584 10.3844 19.8152 10.3916C18.3646 10.3888 16.8151 9.691 16.3413 8.19169C16.2834 8.00866 16.2558 7.79642 16.2276 7.60506C16.8588 7.57722 17.7018 7.60222 18.3488 7.60418C18.5047 8.41991 19.212 8.76067 19.9841 8.71803C20.335 8.69862 20.69 8.61097 20.9373 8.3407C21.1894 8.06532 21.1774 7.57742 20.8666 7.35086C20.6654 7.19999 20.4173 7.11951 20.1835 7.03412C19.1475 6.66091 17.9883 6.59248 17.1191 5.84939C16.2304 5.08976 16.2209 3.63839 16.9733 2.77718C17.6113 2.04712 18.4961 1.78322 19.4277 1.72764ZM32.1651 2.12034C32.1467 3.18864 32.163 4.44017 32.163 5.51281L32.166 10.3267C31.5428 10.3491 30.791 10.3289 30.1575 10.3291C30.1608 9.93971 30.16 9.48788 30.1555 9.09849C30.1118 9.14927 30.0612 9.21976 30.0194 9.27436L30.0142 9.28034C29.4176 9.95951 28.6616 10.3365 27.7744 10.385C25.5378 10.5069 24.0885 8.74832 23.9549 6.60101C23.8151 4.35478 25.0034 2.28257 27.3616 2.14657C27.4923 2.12905 27.7773 2.14026 27.9136 2.15509C28.8883 2.26128 29.5448 2.65674 30.1573 3.40778C30.1737 3.05237 30.1559 2.48814 30.1623 2.11986L32.1651 2.12034ZM29.3447 4.35001C28.9195 4.01719 28.3837 3.86497 27.8501 3.92552C27.8482 3.92584 27.8459 3.92618 27.8438 3.92647C25.1055 4.3145 25.5299 8.84282 28.3068 8.60411C28.3106 8.60352 28.3145 8.60284 28.3185 8.60225C29.7151 8.4255 30.3267 7.12304 30.144 5.83165C30.0604 5.2404 29.8162 4.71875 29.3447 4.35001ZM4.86863 2.42985C4.35077 3.84844 3.89164 5.33105 3.38121 6.7611L6.35509 6.76267C6.23422 6.39671 4.91598 2.4863 4.86863 2.42985Z" fill="#2D2D2D"/>
</svg>
